# xmcd CD database file
#
# Track frame offsets:
#	150
#	20117
#	33377
#	51940
#	67095
#	95522
#	117005
#	132320
#	147550
#
# Disc length: 2191 seconds
#
# Revision: 0
# Processed by: cddbd v1.5.1PL0 Copyright (c) Steve Scherf et al.
# Submitted via: CDex 1.51
#
DISCID=87088d09
DTITLE=BLOODEST SAXPHONE - Blood-est
DYEAR=2003
DGENRE=Blues
TTITLE0=Hot Special
TTITLE1=Bop Corn
TTITLE2=Soul Bossa Nova
TTITLE3=Bop Talk
TTITLE4=A Ship
TTITLE5=Kuragari de Twist
TTITLE6=Sixology
TTITLE7=Run! Young Corn,Run!
TTITLE8=Calling You
EXTD=YEAR: 2003
EXTT0=
EXTT1=
EXTT2=
EXTT3=
EXTT4=
EXTT5=
EXTT6=
EXTT7=
EXTT8=
PLAYORDER=
